<svg xmlns="http://www.w3.org/2000/svg" width="375" viewBox="0 0 375 375" height="375" version="1.0"><g fill="#FFF"><g><g><path d="M 1.796875 -5.40625 L 19.8125 -10.8125 L 82.25 -98.46875 L 21.015625 -201.125 L 4.796875 -204.734375 L 4.796875 -210.125 L 66.34375 -210.125 L 66.34375 -204.734375 L 50.734375 -201.421875 L 98.765625 -121.28125 L 154.296875 -199.328125 L 133.890625 -204.734375 L 133.890625 -210.125 L 180.109375 -210.125 L 180.109375 -204.734375 L 163.609375 -199.625 L 102.96875 -114.671875 L 166 -9 L 183.109375 -5.40625 L 183.109375 0 L 121.578125 0 L 121.578125 -5.40625 L 136.28125 -8.703125 L 86.453125 -91.5625 L 28.515625 -10.5 L 48.03125 -5.40625 L 48.03125 0 L 1.796875 0 Z M 1.796875 -5.40625" transform="translate(95.04 293.98)"/></g></g></g><g fill="#FFF"><g><g><path d="M 1.796875 -210.125 L 63.34375 -210.125 L 63.34375 -204.734375 L 45.625 -200.828125 L 111.375 -27.625 L 176.203125 -199.03125 L 155.203125 -204.734375 L 155.203125 -210.125 L 201.71875 -210.125 L 201.71875 -204.734375 L 183.71875 -199.328125 L 108.0625 0 L 94.859375 0 L 18.3125 -201.125 L 1.796875 -204.734375 Z M 1.796875 -210.125" transform="translate(86.634 293.98)"/></g></g></g></svg>